<?xml version="1.0" encoding="UTF-8"?>
<!DOCTYPE svg PUBLIC "-//W3C//DTD SVG 1.1//EN" "http://www.w3.org/Graphics/SVG/1.1/DTD/svg11.dtd">
<svg xmlns="http://www.w3.org/2000/svg" xmlns:xlink="http://www.w3.org/1999/xlink" version="1.1" width="141px"
	height="291px" viewBox="-0.5 -0.5 141 291" style="background-color: rgb(255, 255, 255);">
	<defs>
		<style>
			text {
				fill: rgb(0, 0, 0);
				font-family: "Times New Roman";
				text-anchor: middle;
				font-size: 12px;
			}

			path {
				fill: none;
				stroke: rgb(0, 0, 0);
			}
		</style>
	</defs>
	<g>
		<g><text x="69.5" y="279.5">i - i - i</text></g>
		<g><text x="9.5" y="234.5">i</text></g>
		<g><text x="69.5" y="234.5">i</text></g>
		<g><text x="129.5" y="234.5">i</text></g>
		<path d="M 10 200 L 10 220" stroke-miterlimit="10" pointer-events="stroke" />
		<g><text x="9.5" y="194.5">F</text></g>
		<path d="M 10 160 L 10 180" stroke-miterlimit="10" pointer-events="stroke" />
		<g><text x="9.5" y="154.5">T</text></g>
		<path d="M 10 120 L 10 140" stroke-miterlimit="10" pointer-events="stroke" />
		<g><text x="9.5" y="114.5">E</text></g>
		<path d="M 70 160 L 70 220" stroke-miterlimit="10" pointer-events="stroke" />
		<g><text x="69.5" y="154.5">F</text></g>
		<path d="M 70 120 L 70 140" stroke-miterlimit="10" pointer-events="stroke" />
		<g><text x="69.5" y="114.5">T</text></g>
		<path d="M 130 120 L 130 220" stroke-miterlimit="10" pointer-events="stroke" />
		<g><text x="129.5" y="114.5">F</text></g>
		<path d="M 130 80 L 130 100" stroke-miterlimit="10" pointer-events="stroke" />
		<g><text x="129.5" y="74.5">T</text></g>
		<path d="M 32.5 80 L 17.5 100" stroke-miterlimit="10" pointer-events="stroke" />
		<path d="M 47.5 80 L 62.5 100" stroke-miterlimit="10" pointer-events="stroke" />
		<g><text x="39.5" y="74.5">E</text></g>
		<g><text x="84.5" y="74.5">-</text></g>
		<g><text x="39.5" y="114.5">-</text></g>
		<path d="M 77.5 20 L 47.5 60" stroke-miterlimit="10" pointer-events="stroke" />
		<path d="M 92.5 20 L 122.5 60" stroke-miterlimit="10" pointer-events="stroke" />
		<g><text x="84.5" y="14.5">E</text></g>
	</g>
</svg>
