<?xml version="1.0" encoding="UTF-8"?>
<!DOCTYPE svg PUBLIC "-//W3C//DTD SVG 1.1//EN" "http://www.w3.org/Graphics/SVG/1.1/DTD/svg11.dtd">
<svg xmlns="http://www.w3.org/2000/svg" xmlns:xlink="http://www.w3.org/1999/xlink" version="1.1" width="131px"
	height="221px" viewBox="-0.5 -0.5 131 221" style="background-color: rgb(255, 255, 255);">
	<defs>
		<style>
			text {
				fill: rgb(0, 0, 0);
				font-family: "Times New Roman";
				text-anchor: middle;
				font-size: 12px;
			}

			path {
				fill: none;
				stroke: rgb(0, 0, 0);
			}
		</style>
	</defs>
	<g>
		<g><text x="59.5" y="209.5">i + i * i</text></g>
		<g><text x="59.5" y="174.5">i</text></g>
		<g><text x="119.5" y="174.5">i</text></g>
		<g><text x="9.5" y="174.5">i</text></g>
		<path d="M 60 140 L 60 160" stroke-miterlimit="10" pointer-events="stroke" />
		<g><text x="59.5" y="134.5">F</text></g>
		<path d="M 60 100 L 60 120" stroke-miterlimit="10" pointer-events="stroke" />
		<g><text x="59.5" y="94.5">T</text></g>
		<path d="M 120 100 L 120 160" stroke-miterlimit="10" pointer-events="stroke" />
		<g><text x="119.5" y="94.5">F</text></g>
		<path d="M 10 100 L 10 120" stroke-miterlimit="10" pointer-events="stroke" />
		<g><text x="9.5" y="94.5">T</text></g>
		<path d="M 10 60 L 10 80" stroke-miterlimit="10" pointer-events="stroke" />
		<g><text x="9.5" y="54.5">E</text></g>
		<path d="M 82.5 60 L 67.5 80" stroke-miterlimit="10" pointer-events="stroke" />
		<path d="M 97.5 60 L 112.5 80" stroke-miterlimit="10" pointer-events="stroke" />
		<g><text x="89.5" y="54.5">T</text></g>
		<g><text x="49.5" y="54.5">+</text></g>
		<g><text x="89.5" y="94.5">*</text></g>
		<path d="M 60 20 L 80 40" stroke-miterlimit="10" pointer-events="stroke" />
		<path d="M 40 20 L 20 40" stroke-miterlimit="10" pointer-events="stroke" />
		<g><text x="49.5" y="14.5">E</text></g>
		<path d="M 10 140 L 10 160" stroke-miterlimit="10" pointer-events="stroke" />
		<g><text x="9.5" y="134.5">F</text></g>
	</g>
</svg>
